<?xml version="1.0" encoding="utf-8" standalone="no"?>
<!DOCTYPE svg PUBLIC "-//W3C//DTD SVG 1.1//EN"
  "http://www.w3.org/Graphics/SVG/1.1/DTD/svg11.dtd">
<svg xmlns:xlink="http://www.w3.org/1999/xlink" width="675.850729pt" height="280.478438pt" viewBox="0 0 675.850729 280.478438" xmlns="http://www.w3.org/2000/svg" version="1.1">
 <metadata>
  <rdf:RDF xmlns:dc="http://purl.org/dc/elements/1.1/" xmlns:cc="http://creativecommons.org/ns#" xmlns:rdf="http://www.w3.org/1999/02/22-rdf-syntax-ns#">
   <cc:Work>
    <dc:type rdf:resource="http://purl.org/dc/dcmitype/StillImage"/>
    <dc:date>2026-06-14T00:42:09.582730</dc:date>
    <dc:format>image/svg+xml</dc:format>
    <dc:creator>
     <cc:Agent>
      <dc:title>Matplotlib v3.11.0, https://matplotlib.org/</dc:title>
     </cc:Agent>
    </dc:creator>
   </cc:Work>
  </rdf:RDF>
 </metadata>
 <defs>
  <style type="text/css">*{stroke-linejoin: round; stroke-linecap: butt}</style>
 </defs>
 <g id="figure_1">
  <g id="patch_1">
   <path d="M 0 280.478438 
L 675.850729 280.478438 
L 675.850729 0 
L 0 0 
z
" style="fill: #ffffff"/>
  </g>
  <g id="axes_1">
   <g id="patch_2">
    <path d="M 38.482813 256.278438 
L 273.962813 256.278438 
L 273.962813 20.798438 
L 38.482813 20.798438 
z
" style="fill: #ffffff"/>
   </g>
   <g id="patch_3">
    <path d="M 219.493621 75.267629 
L 213.943304 86.368263 
L 211.195897 83.620856 
L 156.250564 138.566189 
L 156.195061 138.510686 
L 211.140394 83.565353 
L 208.392987 80.817946 
z
" clip-path="url(#pb0bd2b58c6)" style="fill: #ff0000; opacity: 0.7; stroke: #ff0000; stroke-linejoin: miter"/>
   </g>
   <g id="matplotlib.axis_1">
    <g id="xtick_1">
     <g id="line2d_1">
      <path d="M 38.482813 256.278438 
L 38.482813 20.798438 
" clip-path="url(#pb0bd2b58c6)" style="fill: none; stroke: #b0b0b0; stroke-opacity: 0.2; stroke-width: 0.8; stroke-linecap: square"/>
     </g>
     <g id="line2d_2">
      <defs>
       <path id="m8cbad88b5e" d="M 0 0 
L 0 3.5 
" style="stroke: #000000; stroke-width: 0.8"/>
      </defs>
      <g>
       <use xlink:href="#m8cbad88b5e" x="38.482813" y="256.278438" style="stroke: #000000; stroke-width: 0.8"/>
      </g>
     </g>
     <g id="text_1">
      <!-- −1.5 -->
      <g transform="translate(26.341406 270.876094) scale(0.1 -0.1)">
       <defs>
        <path id="DejaVuSans-c9c" d="M 678 2272 
L 4684 2272 
L 4684 1741 
L 678 1741 
L 678 2272 
z
" transform="scale(0.015625)"/>
        <path id="DejaVuSans-14" d="M 794 531 
L 1825 531 
L 1825 4091 
L 703 3866 
L 703 4441 
L 1819 4666 
L 2450 4666 
L 2450 531 
L 3481 531 
L 3481 0 
L 794 0 
L 794 531 
z
" transform="scale(0.015625)"/>
        <path id="DejaVuSans-11" d="M 684 794 
L 1344 794 
L 1344 0 
L 684 0 
L 684 794 
z
" transform="scale(0.015625)"/>
        <path id="DejaVuSans-18" d="M 691 4666 
L 3169 4666 
L 3169 4134 
L 1269 4134 
L 1269 2991 
Q 1406 3038 1543 3061 
Q 1681 3084 1819 3084 
Q 2600 3084 3056 2656 
Q 3513 2228 3513 1497 
Q 3513 744 3044 326 
Q 2575 -91 1722 -91 
Q 1428 -91 1123 -41 
Q 819 9 494 109 
L 494 744 
Q 775 591 1075 516 
Q 1375 441 1709 441 
Q 2250 441 2565 725 
Q 2881 1009 2881 1497 
Q 2881 1984 2565 2268 
Q 2250 2553 1709 2553 
Q 1456 2553 1204 2497 
Q 953 2441 691 2322 
L 691 4666 
z
" transform="scale(0.015625)"/>
       </defs>
       <use xlink:href="#DejaVuSans-c9c"/>
       <use xlink:href="#DejaVuSans-14" transform="translate(83.796875 0)"/>
       <use xlink:href="#DejaVuSans-11" transform="translate(147.421875 0)"/>
       <use xlink:href="#DejaVuSans-18" transform="translate(179.203125 0)"/>
      </g>
     </g>
    </g>
    <g id="xtick_2">
     <g id="line2d_3">
      <path d="M 77.729479 256.278438 
L 77.729479 20.798438 
" clip-path="url(#pb0bd2b58c6)" style="fill: none; stroke: #b0b0b0; stroke-opacity: 0.2; stroke-width: 0.8; stroke-linecap: square"/>
     </g>
     <g id="line2d_4">
      <g>
       <use xlink:href="#m8cbad88b5e" x="77.729479" y="256.278438" style="stroke: #000000; stroke-width: 0.8"/>
      </g>
     </g>
     <g id="text_2">
      <!-- −1.0 -->
      <g transform="translate(65.588073 270.876094) scale(0.1 -0.1)">
       <defs>
        <path id="DejaVuSans-13" d="M 2034 4250 
Q 1547 4250 1301 3770 
Q 1056 3291 1056 2328 
Q 1056 1369 1301 889 
Q 1547 409 2034 409 
Q 2525 409 2770 889 
Q 3016 1369 3016 2328 
Q 3016 3291 2770 3770 
Q 2525 4250 2034 4250 
z
M 2034 4750 
Q 2819 4750 3233 4129 
Q 3647 3509 3647 2328 
Q 3647 1150 3233 529 
Q 2819 -91 2034 -91 
Q 1250 -91 836 529 
Q 422 1150 422 2328 
Q 422 3509 836 4129 
Q 1250 4750 2034 4750 
z
" transform="scale(0.015625)"/>
       </defs>
       <use xlink:href="#DejaVuSans-c9c"/>
       <use xlink:href="#DejaVuSans-14" transform="translate(83.796875 0)"/>
       <use xlink:href="#DejaVuSans-11" transform="translate(147.421875 0)"/>
       <use xlink:href="#DejaVuSans-13" transform="translate(179.203125 0)"/>
      </g>
     </g>
    </g>
    <g id="xtick_3">
     <g id="line2d_5">
      <path d="M 116.976146 256.278438 
L 116.976146 20.798438 
" clip-path="url(#pb0bd2b58c6)" style="fill: none; stroke: #b0b0b0; stroke-opacity: 0.2; stroke-width: 0.8; stroke-linecap: square"/>
     </g>
     <g id="line2d_6">
      <g>
       <use xlink:href="#m8cbad88b5e" x="116.976146" y="256.278438" style="stroke: #000000; stroke-width: 0.8"/>
      </g>
     </g>
     <g id="text_3">
      <!-- −0.5 -->
      <g transform="translate(104.83474 270.876094) scale(0.1 -0.1)">
       <use xlink:href="#DejaVuSans-c9c"/>
       <use xlink:href="#DejaVuSans-13" transform="translate(83.796875 0)"/>
       <use xlink:href="#DejaVuSans-11" transform="translate(147.421875 0)"/>
       <use xlink:href="#DejaVuSans-18" transform="translate(179.203125 0)"/>
      </g>
     </g>
    </g>
    <g id="xtick_4">
     <g id="line2d_7">
      <path d="M 156.222813 256.278438 
L 156.222813 20.798438 
" clip-path="url(#pb0bd2b58c6)" style="fill: none; stroke: #b0b0b0; stroke-opacity: 0.2; stroke-width: 0.8; stroke-linecap: square"/>
     </g>
     <g id="line2d_8">
      <g>
       <use xlink:href="#m8cbad88b5e" x="156.222813" y="256.278438" style="stroke: #000000; stroke-width: 0.8"/>
      </g>
     </g>
     <g id="text_4">
      <!-- 0.0 -->
      <g transform="translate(148.27125 270.876094) scale(0.1 -0.1)">
       <use xlink:href="#DejaVuSans-13"/>
       <use xlink:href="#DejaVuSans-11" transform="translate(63.625 0)"/>
       <use xlink:href="#DejaVuSans-13" transform="translate(95.40625 0)"/>
      </g>
     </g>
    </g>
    <g id="xtick_5">
     <g id="line2d_9">
      <path d="M 195.469479 256.278438 
L 195.469479 20.798438 
" clip-path="url(#pb0bd2b58c6)" style="fill: none; stroke: #b0b0b0; stroke-opacity: 0.2; stroke-width: 0.8; stroke-linecap: square"/>
     </g>
     <g id="line2d_10">
      <g>
       <use xlink:href="#m8cbad88b5e" x="195.469479" y="256.278438" style="stroke: #000000; stroke-width: 0.8"/>
      </g>
     </g>
     <g id="text_5">
      <!-- 0.5 -->
      <g transform="translate(187.517917 270.876094) scale(0.1 -0.1)">
       <use xlink:href="#DejaVuSans-13"/>
       <use xlink:href="#DejaVuSans-11" transform="translate(63.625 0)"/>
       <use xlink:href="#DejaVuSans-18" transform="translate(95.40625 0)"/>
      </g>
     </g>
    </g>
    <g id="xtick_6">
     <g id="line2d_11">
      <path d="M 234.716146 256.278438 
L 234.716146 20.798438 
" clip-path="url(#pb0bd2b58c6)" style="fill: none; stroke: #b0b0b0; stroke-opacity: 0.2; stroke-width: 0.8; stroke-linecap: square"/>
     </g>
     <g id="line2d_12">
      <g>
       <use xlink:href="#m8cbad88b5e" x="234.716146" y="256.278438" style="stroke: #000000; stroke-width: 0.8"/>
      </g>
     </g>
     <g id="text_6">
      <!-- 1.0 -->
      <g transform="translate(226.764583 270.876094) scale(0.1 -0.1)">
       <use xlink:href="#DejaVuSans-14"/>
       <use xlink:href="#DejaVuSans-11" transform="translate(63.625 0)"/>
       <use xlink:href="#DejaVuSans-13" transform="translate(95.40625 0)"/>
      </g>
     </g>
    </g>
    <g id="xtick_7">
     <g id="line2d_13">
      <path d="M 273.962813 256.278438 
L 273.962813 20.798438 
" clip-path="url(#pb0bd2b58c6)" style="fill: none; stroke: #b0b0b0; stroke-opacity: 0.2; stroke-width: 0.8; stroke-linecap: square"/>
     </g>
     <g id="line2d_14">
      <g>
       <use xlink:href="#m8cbad88b5e" x="273.962813" y="256.278438" style="stroke: #000000; stroke-width: 0.8"/>
      </g>
     </g>
     <g id="text_7">
      <!-- 1.5 -->
      <g transform="translate(266.01125 270.876094) scale(0.1 -0.1)">
       <use xlink:href="#DejaVuSans-14"/>
       <use xlink:href="#DejaVuSans-11" transform="translate(63.625 0)"/>
       <use xlink:href="#DejaVuSans-18" transform="translate(95.40625 0)"/>
      </g>
     </g>
    </g>
   </g>
   <g id="matplotlib.axis_2">
    <g id="ytick_1">
     <g id="line2d_15">
      <path d="M 38.482813 256.278438 
L 273.962813 256.278438 
" clip-path="url(#pb0bd2b58c6)" style="fill: none; stroke: #b0b0b0; stroke-opacity: 0.2; stroke-width: 0.8; stroke-linecap: square"/>
     </g>
     <g id="line2d_16">
      <defs>
       <path id="m756c8e18d7" d="M 0 0 
L -3.5 0 
" style="stroke: #000000; stroke-width: 0.8"/>
      </defs>
      <g>
       <use xlink:href="#m756c8e18d7" x="38.482813" y="256.278438" style="stroke: #000000; stroke-width: 0.8"/>
      </g>
     </g>
     <g id="text_8">
      <!-- −1.5 -->
      <g transform="translate(7.2 260.077266) scale(0.1 -0.1)">
       <use xlink:href="#DejaVuSans-c9c"/>
       <use xlink:href="#DejaVuSans-14" transform="translate(83.796875 0)"/>
       <use xlink:href="#DejaVuSans-11" transform="translate(147.421875 0)"/>
       <use xlink:href="#DejaVuSans-18" transform="translate(179.203125 0)"/>
      </g>
     </g>
    </g>
    <g id="ytick_2">
     <g id="line2d_17">
      <path d="M 38.482813 217.031771 
L 273.962813 217.031771 
" clip-path="url(#pb0bd2b58c6)" style="fill: none; stroke: #b0b0b0; stroke-opacity: 0.2; stroke-width: 0.8; stroke-linecap: square"/>
     </g>
     <g id="line2d_18">
      <g>
       <use xlink:href="#m756c8e18d7" x="38.482813" y="217.031771" style="stroke: #000000; stroke-width: 0.8"/>
      </g>
     </g>
     <g id="text_9">
      <!-- −1.0 -->
      <g transform="translate(7.2 220.830599) scale(0.1 -0.1)">
       <use xlink:href="#DejaVuSans-c9c"/>
       <use xlink:href="#DejaVuSans-14" transform="translate(83.796875 0)"/>
       <use xlink:href="#DejaVuSans-11" transform="translate(147.421875 0)"/>
       <use xlink:href="#DejaVuSans-13" transform="translate(179.203125 0)"/>
      </g>
     </g>
    </g>
    <g id="ytick_3">
     <g id="line2d_19">
      <path d="M 38.482813 177.785104 
L 273.962813 177.785104 
" clip-path="url(#pb0bd2b58c6)" style="fill: none; stroke: #b0b0b0; stroke-opacity: 0.2; stroke-width: 0.8; stroke-linecap: square"/>
     </g>
     <g id="line2d_20">
      <g>
       <use xlink:href="#m756c8e18d7" x="38.482813" y="177.785104" style="stroke: #000000; stroke-width: 0.8"/>
      </g>
     </g>
     <g id="text_10">
      <!-- −0.5 -->
      <g transform="translate(7.2 181.583932) scale(0.1 -0.1)">
       <use xlink:href="#DejaVuSans-c9c"/>
       <use xlink:href="#DejaVuSans-13" transform="translate(83.796875 0)"/>
       <use xlink:href="#DejaVuSans-11" transform="translate(147.421875 0)"/>
       <use xlink:href="#DejaVuSans-18" transform="translate(179.203125 0)"/>
      </g>
     </g>
    </g>
    <g id="ytick_4">
     <g id="line2d_21">
      <path d="M 38.482813 138.538438 
L 273.962813 138.538438 
" clip-path="url(#pb0bd2b58c6)" style="fill: none; stroke: #b0b0b0; stroke-opacity: 0.2; stroke-width: 0.8; stroke-linecap: square"/>
     </g>
     <g id="line2d_22">
      <g>
       <use xlink:href="#m756c8e18d7" x="38.482813" y="138.538438" style="stroke: #000000; stroke-width: 0.8"/>
      </g>
     </g>
     <g id="text_11">
      <!-- 0.0 -->
      <g transform="translate(15.579688 142.337266) scale(0.1 -0.1)">
       <use xlink:href="#DejaVuSans-13"/>
       <use xlink:href="#DejaVuSans-11" transform="translate(63.625 0)"/>
       <use xlink:href="#DejaVuSans-13" transform="translate(95.40625 0)"/>
      </g>
     </g>
    </g>
    <g id="ytick_5">
     <g id="line2d_23">
      <path d="M 38.482813 99.291771 
L 273.962813 99.291771 
" clip-path="url(#pb0bd2b58c6)" style="fill: none; stroke: #b0b0b0; stroke-opacity: 0.2; stroke-width: 0.8; stroke-linecap: square"/>
     </g>
     <g id="line2d_24">
      <g>
       <use xlink:href="#m756c8e18d7" x="38.482813" y="99.291771" style="stroke: #000000; stroke-width: 0.8"/>
      </g>
     </g>
     <g id="text_12">
      <!-- 0.5 -->
      <g transform="translate(15.579688 103.090599) scale(0.1 -0.1)">
       <use xlink:href="#DejaVuSans-13"/>
       <use xlink:href="#DejaVuSans-11" transform="translate(63.625 0)"/>
       <use xlink:href="#DejaVuSans-18" transform="translate(95.40625 0)"/>
      </g>
     </g>
    </g>
    <g id="ytick_6">
     <g id="line2d_25">
      <path d="M 38.482813 60.045104 
L 273.962813 60.045104 
" clip-path="url(#pb0bd2b58c6)" style="fill: none; stroke: #b0b0b0; stroke-opacity: 0.2; stroke-width: 0.8; stroke-linecap: square"/>
     </g>
     <g id="line2d_26">
      <g>
       <use xlink:href="#m756c8e18d7" x="38.482813" y="60.045104" style="stroke: #000000; stroke-width: 0.8"/>
      </g>
     </g>
     <g id="text_13">
      <!-- 1.0 -->
      <g transform="translate(15.579688 63.843932) scale(0.1 -0.1)">
       <use xlink:href="#DejaVuSans-14"/>
       <use xlink:href="#DejaVuSans-11" transform="translate(63.625 0)"/>
       <use xlink:href="#DejaVuSans-13" transform="translate(95.40625 0)"/>
      </g>
     </g>
    </g>
    <g id="ytick_7">
     <g id="line2d_27">
      <path d="M 38.482813 20.798438 
L 273.962813 20.798438 
" clip-path="url(#pb0bd2b58c6)" style="fill: none; stroke: #b0b0b0; stroke-opacity: 0.2; stroke-width: 0.8; stroke-linecap: square"/>
     </g>
     <g id="line2d_28">
      <g>
       <use xlink:href="#m756c8e18d7" x="38.482813" y="20.798438" style="stroke: #000000; stroke-width: 0.8"/>
      </g>
     </g>
     <g id="text_14">
      <!-- 1.5 -->
      <g transform="translate(15.579688 24.597266) scale(0.1 -0.1)">
       <use xlink:href="#DejaVuSans-14"/>
       <use xlink:href="#DejaVuSans-11" transform="translate(63.625 0)"/>
       <use xlink:href="#DejaVuSans-18" transform="translate(95.40625 0)"/>
      </g>
     </g>
    </g>
   </g>
   <g id="line2d_29">
    <path d="M 234.716146 138.538438 
L 234.628571 134.831635 
L 234.366043 131.133104 
L 233.929146 127.451097 
L 233.318856 123.79383 
L 232.536535 120.169464 
L 231.583928 116.586087 
L 230.463161 113.051694 
L 229.176734 109.574172 
L 227.727519 106.16128 
L 226.118749 102.820634 
L 224.354014 99.559689 
L 222.437251 96.385721 
L 220.372738 93.305812 
L 218.165082 90.326834 
L 215.819208 87.455436 
L 213.340351 84.698023 
L 210.734043 82.06075 
L 208.006098 79.549501 
L 205.162605 77.169878 
L 202.209909 74.927193 
L 199.154597 72.82645 
L 196.003487 70.872336 
L 192.763611 69.069211 
L 189.442199 67.421099 
L 186.046661 65.931678 
L 182.584574 64.604271 
L 179.063664 63.44184 
L 175.491787 62.446979 
L 171.876913 61.621908 
L 168.227109 60.968468 
L 164.550519 60.488116 
L 160.855346 60.181925 
L 157.149836 60.050579 
L 153.442258 60.094369 
L 149.740884 60.313199 
L 146.053974 60.70658 
L 142.389755 61.273634 
L 138.756403 62.013096 
L 135.162025 62.923316 
L 131.614642 64.002263 
L 128.122169 65.247529 
L 124.6924 66.656337 
L 121.332987 68.225541 
L 118.051427 69.95164 
L 114.855043 71.830784 
L 111.750966 73.858779 
L 108.746124 76.031099 
L 105.84722 78.342897 
L 103.060724 80.789015 
L 100.392854 83.363995 
L 97.849562 86.062091 
L 95.436523 88.877281 
L 93.159123 91.803286 
L 91.022442 94.833574 
L 89.031249 97.961386 
L 87.189986 101.17974 
L 85.502763 104.481457 
L 83.973344 107.859167 
L 82.605141 111.305336 
L 81.401208 114.812272 
L 80.364232 118.37215 
L 79.496526 121.977027 
L 78.800026 125.618859 
L 78.276287 129.28952 
L 77.926476 132.980819 
L 77.751376 136.684519 
L 77.751376 140.392356 
L 77.926476 144.096056 
L 78.276287 147.787355 
L 78.800026 151.458016 
L 79.496526 155.099848 
L 80.364232 158.704725 
L 81.401208 162.264603 
L 82.605141 165.771539 
L 83.973344 169.217708 
L 85.502763 172.595418 
L 87.189986 175.897135 
L 89.031249 179.115489 
L 91.022442 182.243301 
L 93.159123 185.273589 
L 95.436523 188.199594 
L 97.849562 191.014784 
L 100.392854 193.71288 
L 103.060724 196.28786 
L 105.84722 198.733978 
L 108.746124 201.045776 
L 111.750966 203.218096 
L 114.855043 205.246091 
L 118.051427 207.125235 
L 121.332987 208.851334 
L 124.6924 210.420538 
L 128.122169 211.829346 
L 131.614642 213.074612 
L 135.162025 214.153559 
L 138.756403 215.063779 
L 142.389755 215.803241 
L 146.053974 216.370295 
L 149.740884 216.763676 
L 153.442258 216.982506 
L 157.149836 217.026296 
L 160.855346 216.89495 
L 164.550519 216.588759 
L 168.227109 216.108407 
L 171.876913 215.454967 
L 175.491787 214.629896 
L 179.063664 213.635035 
L 182.584574 212.472604 
L 186.046661 211.145197 
L 189.442199 209.655776 
L 192.763611 208.007664 
L 196.003487 206.204539 
L 199.154597 204.250425 
L 202.209909 202.149682 
L 205.162605 199.906997 
L 208.006098 197.527374 
L 210.734043 195.016125 
L 213.340351 192.378852 
L 215.819208 189.621439 
L 218.165082 186.750041 
L 220.372738 183.771063 
L 222.437251 180.691154 
L 224.354014 177.517186 
L 226.118749 174.256241 
L 227.727519 170.915595 
L 229.176734 167.502703 
L 230.463161 164.025181 
L 231.583928 160.490788 
L 232.536535 156.907411 
L 233.318856 153.283045 
L 233.929146 149.625778 
L 234.366043 145.943771 
L 234.628571 142.24524 
L 234.716146 138.538438 
L 234.716146 138.538438 
" clip-path="url(#pb0bd2b58c6)" style="fill: none; stroke: #0000ff; stroke-width: 2; stroke-linecap: square"/>
   </g>
   <g id="line2d_30">
    <path d="M 38.482813 138.538438 
L 273.962813 138.538438 
" clip-path="url(#pb0bd2b58c6)" style="fill: none; stroke: #808080; stroke-width: 0.5; stroke-linecap: square"/>
   </g>
   <g id="line2d_31">
    <path d="M 156.222813 256.278438 
L 156.222813 20.798438 
" clip-path="url(#pb0bd2b58c6)" style="fill: none; stroke: #808080; stroke-width: 0.5; stroke-linecap: square"/>
   </g>
   <g id="patch_4">
    <path d="M 38.482813 256.278438 
L 38.482813 20.798438 
" style="fill: none; stroke: #000000; stroke-width: 0.8; stroke-linejoin: miter; stroke-linecap: square"/>
   </g>
   <g id="patch_5">
    <path d="M 273.962813 256.278438 
L 273.962813 20.798438 
" style="fill: none; stroke: #000000; stroke-width: 0.8; stroke-linejoin: miter; stroke-linecap: square"/>
   </g>
   <g id="patch_6">
    <path d="M 38.482813 256.278438 
L 273.962813 256.278438 
" style="fill: none; stroke: #000000; stroke-width: 0.8; stroke-linejoin: miter; stroke-linecap: square"/>
   </g>
   <g id="patch_7">
    <path d="M 38.482813 20.798438 
L 273.962813 20.798438 
" style="fill: none; stroke: #000000; stroke-width: 0.8; stroke-linejoin: miter; stroke-linecap: square"/>
   </g>
   <g id="text_15">
    <!-- Circle: e^(ix) = cos x + i sin x -->
    <g transform="translate(81.005625 14.798438) scale(0.1 -0.1)">
     <defs>
      <path id="DejaVuSans-26" d="M 4122 4306 
L 4122 3641 
Q 3803 3938 3442 4084 
Q 3081 4231 2675 4231 
Q 1875 4231 1450 3742 
Q 1025 3253 1025 2328 
Q 1025 1406 1450 917 
Q 1875 428 2675 428 
Q 3081 428 3442 575 
Q 3803 722 4122 1019 
L 4122 359 
Q 3791 134 3420 21 
Q 3050 -91 2638 -91 
Q 1578 -91 968 557 
Q 359 1206 359 2328 
Q 359 3453 968 4101 
Q 1578 4750 2638 4750 
Q 3056 4750 3426 4639 
Q 3797 4528 4122 4306 
z
" transform="scale(0.015625)"/>
      <path id="DejaVuSans-4c" d="M 603 3500 
L 1178 3500 
L 1178 0 
L 603 0 
L 603 3500 
z
M 603 4863 
L 1178 4863 
L 1178 4134 
L 603 4134 
L 603 4863 
z
" transform="scale(0.015625)"/>
      <path id="DejaVuSans-55" d="M 2631 2963 
Q 2534 3019 2420 3045 
Q 2306 3072 2169 3072 
Q 1681 3072 1420 2755 
Q 1159 2438 1159 1844 
L 1159 0 
L 581 0 
L 581 3500 
L 1159 3500 
L 1159 2956 
Q 1341 3275 1631 3429 
Q 1922 3584 2338 3584 
Q 2397 3584 2469 3576 
Q 2541 3569 2628 3553 
L 2631 2963 
z
" transform="scale(0.015625)"/>
      <path id="DejaVuSans-46" d="M 3122 3366 
L 3122 2828 
Q 2878 2963 2633 3030 
Q 2388 3097 2138 3097 
Q 1578 3097 1268 2742 
Q 959 2388 959 1747 
Q 959 1106 1268 751 
Q 1578 397 2138 397 
Q 2388 397 2633 464 
Q 2878 531 3122 666 
L 3122 134 
Q 2881 22 2623 -34 
Q 2366 -91 2075 -91 
Q 1284 -91 818 406 
Q 353 903 353 1747 
Q 353 2603 823 3093 
Q 1294 3584 2113 3584 
Q 2378 3584 2631 3529 
Q 2884 3475 3122 3366 
z
" transform="scale(0.015625)"/>
      <path id="DejaVuSans-4f" d="M 603 4863 
L 1178 4863 
L 1178 0 
L 603 0 
L 603 4863 
z
" transform="scale(0.015625)"/>
      <path id="DejaVuSans-48" d="M 3597 1894 
L 3597 1613 
L 953 1613 
Q 991 1019 1311 708 
Q 1631 397 2203 397 
Q 2534 397 2845 478 
Q 3156 559 3463 722 
L 3463 178 
Q 3153 47 2828 -22 
Q 2503 -91 2169 -91 
Q 1331 -91 842 396 
Q 353 884 353 1716 
Q 353 2575 817 3079 
Q 1281 3584 2069 3584 
Q 2775 3584 3186 3129 
Q 3597 2675 3597 1894 
z
M 3022 2063 
Q 3016 2534 2758 2815 
Q 2500 3097 2075 3097 
Q 1594 3097 1305 2825 
Q 1016 2553 972 2059 
L 3022 2063 
z
" transform="scale(0.015625)"/>
      <path id="DejaVuSans-1d" d="M 750 794 
L 1409 794 
L 1409 0 
L 750 0 
L 750 794 
z
M 750 3309 
L 1409 3309 
L 1409 2516 
L 750 2516 
L 750 3309 
z
" transform="scale(0.015625)"/>
      <path id="DejaVuSans-3" transform="scale(0.015625)"/>
      <path id="DejaVuSans-41" d="M 2988 4666 
L 4684 2925 
L 4056 2925 
L 2681 4159 
L 1306 2925 
L 678 2925 
L 2375 4666 
L 2988 4666 
z
" transform="scale(0.015625)"/>
      <path id="DejaVuSans-b" d="M 1984 4856 
Q 1566 4138 1362 3434 
Q 1159 2731 1159 2009 
Q 1159 1288 1364 580 
Q 1569 -128 1984 -844 
L 1484 -844 
Q 1016 -109 783 600 
Q 550 1309 550 2009 
Q 550 2706 781 3412 
Q 1013 4119 1484 4856 
L 1984 4856 
z
" transform="scale(0.015625)"/>
      <path id="DejaVuSans-5b" d="M 3513 3500 
L 2247 1797 
L 3578 0 
L 2900 0 
L 1881 1375 
L 863 0 
L 184 0 
L 1544 1831 
L 300 3500 
L 978 3500 
L 1906 2253 
L 2834 3500 
L 3513 3500 
z
" transform="scale(0.015625)"/>
      <path id="DejaVuSans-c" d="M 513 4856 
L 1013 4856 
Q 1481 4119 1714 3412 
Q 1947 2706 1947 2009 
Q 1947 1309 1714 600 
Q 1481 -109 1013 -844 
L 513 -844 
Q 928 -128 1133 580 
Q 1338 1288 1338 2009 
Q 1338 2731 1133 3434 
Q 928 4138 513 4856 
z
" transform="scale(0.015625)"/>
      <path id="DejaVuSans-20" d="M 678 2906 
L 4684 2906 
L 4684 2381 
L 678 2381 
L 678 2906 
z
M 678 1631 
L 4684 1631 
L 4684 1100 
L 678 1100 
L 678 1631 
z
" transform="scale(0.015625)"/>
      <path id="DejaVuSans-52" d="M 1959 3097 
Q 1497 3097 1228 2736 
Q 959 2375 959 1747 
Q 959 1119 1226 758 
Q 1494 397 1959 397 
Q 2419 397 2687 759 
Q 2956 1122 2956 1747 
Q 2956 2369 2687 2733 
Q 2419 3097 1959 3097 
z
M 1959 3584 
Q 2709 3584 3137 3096 
Q 3566 2609 3566 1747 
Q 3566 888 3137 398 
Q 2709 -91 1959 -91 
Q 1206 -91 779 398 
Q 353 888 353 1747 
Q 353 2609 779 3096 
Q 1206 3584 1959 3584 
z
" transform="scale(0.015625)"/>
      <path id="DejaVuSans-56" d="M 2834 3397 
L 2834 2853 
Q 2591 2978 2328 3040 
Q 2066 3103 1784 3103 
Q 1356 3103 1142 2972 
Q 928 2841 928 2578 
Q 928 2378 1081 2264 
Q 1234 2150 1697 2047 
L 1894 2003 
Q 2506 1872 2764 1633 
Q 3022 1394 3022 966 
Q 3022 478 2636 193 
Q 2250 -91 1575 -91 
Q 1294 -91 989 -36 
Q 684 19 347 128 
L 347 722 
Q 666 556 975 473 
Q 1284 391 1588 391 
Q 1994 391 2212 530 
Q 2431 669 2431 922 
Q 2431 1156 2273 1281 
Q 2116 1406 1581 1522 
L 1381 1569 
Q 847 1681 609 1914 
Q 372 2147 372 2553 
Q 372 3047 722 3315 
Q 1072 3584 1716 3584 
Q 2034 3584 2315 3537 
Q 2597 3491 2834 3397 
z
" transform="scale(0.015625)"/>
      <path id="DejaVuSans-e" d="M 2944 4013 
L 2944 2272 
L 4684 2272 
L 4684 1741 
L 2944 1741 
L 2944 0 
L 2419 0 
L 2419 1741 
L 678 1741 
L 678 2272 
L 2419 2272 
L 2419 4013 
L 2944 4013 
z
" transform="scale(0.015625)"/>
      <path id="DejaVuSans-51" d="M 3513 2113 
L 3513 0 
L 2938 0 
L 2938 2094 
Q 2938 2591 2744 2837 
Q 2550 3084 2163 3084 
Q 1697 3084 1428 2787 
Q 1159 2491 1159 1978 
L 1159 0 
L 581 0 
L 581 3500 
L 1159 3500 
L 1159 2956 
Q 1366 3272 1645 3428 
Q 1925 3584 2291 3584 
Q 2894 3584 3203 3211 
Q 3513 2838 3513 2113 
z
" transform="scale(0.015625)"/>
     </defs>
     <use xlink:href="#DejaVuSans-26"/>
     <use xlink:href="#DejaVuSans-4c" transform="translate(69.828125 0)"/>
     <use xlink:href="#DejaVuSans-55" transform="translate(97.609375 0)"/>
     <use xlink:href="#DejaVuSans-46" transform="translate(136.515625 0)"/>
     <use xlink:href="#DejaVuSans-4f" transform="translate(191.5 0)"/>
     <use xlink:href="#DejaVuSans-48" transform="translate(219.28125 0)"/>
     <use xlink:href="#DejaVuSans-1d" transform="translate(280.8125 0)"/>
     <use xlink:href="#DejaVuSans-3" transform="translate(314.5 0)"/>
     <use xlink:href="#DejaVuSans-48" transform="translate(346.28125 0)"/>
     <use xlink:href="#DejaVuSans-41" transform="translate(407.8125 0)"/>
     <use xlink:href="#DejaVuSans-b" transform="translate(491.609375 0)"/>
     <use xlink:href="#DejaVuSans-4c" transform="translate(530.625 0)"/>
     <use xlink:href="#DejaVuSans-5b" transform="translate(558.40625 0)"/>
     <use xlink:href="#DejaVuSans-c" transform="translate(617.59375 0)"/>
     <use xlink:href="#DejaVuSans-3" transform="translate(656.609375 0)"/>
     <use xlink:href="#DejaVuSans-20" transform="translate(688.390625 0)"/>
     <use xlink:href="#DejaVuSans-3" transform="translate(772.1875 0)"/>
     <use xlink:href="#DejaVuSans-46" transform="translate(803.96875 0)"/>
     <use xlink:href="#DejaVuSans-52" transform="translate(858.953125 0)"/>
     <use xlink:href="#DejaVuSans-56" transform="translate(920.140625 0)"/>
     <use xlink:href="#DejaVuSans-3" transform="translate(972.234375 0)"/>
     <use xlink:href="#DejaVuSans-5b" transform="translate(1004.015625 0)"/>
     <use xlink:href="#DejaVuSans-3" transform="translate(1063.203125 0)"/>
     <use xlink:href="#DejaVuSans-e" transform="translate(1094.984375 0)"/>
     <use xlink:href="#DejaVuSans-3" transform="translate(1178.78125 0)"/>
     <use xlink:href="#DejaVuSans-4c" transform="translate(1210.5625 0)"/>
     <use xlink:href="#DejaVuSans-3" transform="translate(1238.34375 0)"/>
     <use xlink:href="#DejaVuSans-56" transform="translate(1270.125 0)"/>
     <use xlink:href="#DejaVuSans-4c" transform="translate(1322.21875 0)"/>
     <use xlink:href="#DejaVuSans-51" transform="translate(1350 0)"/>
     <use xlink:href="#DejaVuSans-3" transform="translate(1413.375 0)"/>
     <use xlink:href="#DejaVuSans-5b" transform="translate(1445.15625 0)"/>
    </g>
   </g>
  </g>
  <g id="axes_2">
   <g id="patch_8">
    <path d="M 351.496146 256.278438 
L 665.469479 256.278438 
L 665.469479 20.798438 
L 351.496146 20.798438 
z
" style="fill: #ffffff"/>
   </g>
   <g id="patch_9">
    <path d="M 574.700233 94.393491 
L 568.985573 101.740911 
L 567.363698 99.308098 
L 508.493698 138.554765 
L 508.471927 138.52211 
L 567.341927 99.275443 
L 565.720052 96.842631 
z
" clip-path="url(#pdd084703f9)" style="fill: #ff0000; opacity: 0.7; stroke: #ff0000; stroke-linejoin: miter"/>
   </g>
   <g id="matplotlib.axis_3">
    <g id="xtick_8">
     <g id="line2d_32">
      <path d="M 351.496146 256.278438 
L 351.496146 20.798438 
" clip-path="url(#pdd084703f9)" style="fill: none; stroke: #b0b0b0; stroke-opacity: 0.2; stroke-width: 0.8; stroke-linecap: square"/>
     </g>
     <g id="line2d_33">
      <g>
       <use xlink:href="#m8cbad88b5e" x="351.496146" y="256.278438" style="stroke: #000000; stroke-width: 0.8"/>
      </g>
     </g>
     <g id="text_16">
      <!-- −4 -->
      <g transform="translate(344.125052 270.876094) scale(0.1 -0.1)">
       <defs>
        <path id="DejaVuSans-17" d="M 2419 4116 
L 825 1625 
L 2419 1625 
L 2419 4116 
z
M 2253 4666 
L 3047 4666 
L 3047 1625 
L 3713 1625 
L 3713 1100 
L 3047 1100 
L 3047 0 
L 2419 0 
L 2419 1100 
L 313 1100 
L 313 1709 
L 2253 4666 
z
" transform="scale(0.015625)"/>
       </defs>
       <use xlink:href="#DejaVuSans-c9c"/>
       <use xlink:href="#DejaVuSans-17" transform="translate(83.796875 0)"/>
      </g>
     </g>
    </g>
    <g id="xtick_9">
     <g id="line2d_34">
      <path d="M 390.742813 256.278438 
L 390.742813 20.798438 
" clip-path="url(#pdd084703f9)" style="fill: none; stroke: #b0b0b0; stroke-opacity: 0.2; stroke-width: 0.8; stroke-linecap: square"/>
     </g>
     <g id="line2d_35">
      <g>
       <use xlink:href="#m8cbad88b5e" x="390.742813" y="256.278438" style="stroke: #000000; stroke-width: 0.8"/>
      </g>
     </g>
     <g id="text_17">
      <!-- −3 -->
      <g transform="translate(383.371719 270.876094) scale(0.1 -0.1)">
       <defs>
        <path id="DejaVuSans-16" d="M 2597 2516 
Q 3050 2419 3304 2112 
Q 3559 1806 3559 1356 
Q 3559 666 3084 287 
Q 2609 -91 1734 -91 
Q 1441 -91 1130 -33 
Q 819 25 488 141 
L 488 750 
Q 750 597 1062 519 
Q 1375 441 1716 441 
Q 2309 441 2620 675 
Q 2931 909 2931 1356 
Q 2931 1769 2642 2001 
Q 2353 2234 1838 2234 
L 1294 2234 
L 1294 2753 
L 1863 2753 
Q 2328 2753 2575 2939 
Q 2822 3125 2822 3475 
Q 2822 3834 2567 4026 
Q 2313 4219 1838 4219 
Q 1578 4219 1281 4162 
Q 984 4106 628 3988 
L 628 4550 
Q 988 4650 1302 4700 
Q 1616 4750 1894 4750 
Q 2613 4750 3031 4423 
Q 3450 4097 3450 3541 
Q 3450 3153 3228 2886 
Q 3006 2619 2597 2516 
z
" transform="scale(0.015625)"/>
       </defs>
       <use xlink:href="#DejaVuSans-c9c"/>
       <use xlink:href="#DejaVuSans-16" transform="translate(83.796875 0)"/>
      </g>
     </g>
    </g>
    <g id="xtick_10">
     <g id="line2d_36">
      <path d="M 429.989479 256.278438 
L 429.989479 20.798438 
" clip-path="url(#pdd084703f9)" style="fill: none; stroke: #b0b0b0; stroke-opacity: 0.2; stroke-width: 0.8; stroke-linecap: square"/>
     </g>
     <g id="line2d_37">
      <g>
       <use xlink:href="#m8cbad88b5e" x="429.989479" y="256.278438" style="stroke: #000000; stroke-width: 0.8"/>
      </g>
     </g>
     <g id="text_18">
      <!-- −2 -->
      <g transform="translate(422.618385 270.876094) scale(0.1 -0.1)">
       <defs>
        <path id="DejaVuSans-15" d="M 1228 531 
L 3431 531 
L 3431 0 
L 469 0 
L 469 531 
Q 828 903 1448 1529 
Q 2069 2156 2228 2338 
Q 2531 2678 2651 2914 
Q 2772 3150 2772 3378 
Q 2772 3750 2511 3984 
Q 2250 4219 1831 4219 
Q 1534 4219 1204 4116 
Q 875 4013 500 3803 
L 500 4441 
Q 881 4594 1212 4672 
Q 1544 4750 1819 4750 
Q 2544 4750 2975 4387 
Q 3406 4025 3406 3419 
Q 3406 3131 3298 2873 
Q 3191 2616 2906 2266 
Q 2828 2175 2409 1742 
Q 1991 1309 1228 531 
z
" transform="scale(0.015625)"/>
       </defs>
       <use xlink:href="#DejaVuSans-c9c"/>
       <use xlink:href="#DejaVuSans-15" transform="translate(83.796875 0)"/>
      </g>
     </g>
    </g>
    <g id="xtick_11">
     <g id="line2d_38">
      <path d="M 469.236146 256.278438 
L 469.236146 20.798438 
" clip-path="url(#pdd084703f9)" style="fill: none; stroke: #b0b0b0; stroke-opacity: 0.2; stroke-width: 0.8; stroke-linecap: square"/>
     </g>
     <g id="line2d_39">
      <g>
       <use xlink:href="#m8cbad88b5e" x="469.236146" y="256.278438" style="stroke: #000000; stroke-width: 0.8"/>
      </g>
     </g>
     <g id="text_19">
      <!-- −1 -->
      <g transform="translate(461.865052 270.876094) scale(0.1 -0.1)">
       <use xlink:href="#DejaVuSans-c9c"/>
       <use xlink:href="#DejaVuSans-14" transform="translate(83.796875 0)"/>
      </g>
     </g>
    </g>
    <g id="xtick_12">
     <g id="line2d_40">
      <path d="M 508.482813 256.278438 
L 508.482813 20.798438 
" clip-path="url(#pdd084703f9)" style="fill: none; stroke: #b0b0b0; stroke-opacity: 0.2; stroke-width: 0.8; stroke-linecap: square"/>
     </g>
     <g id="line2d_41">
      <g>
       <use xlink:href="#m8cbad88b5e" x="508.482813" y="256.278438" style="stroke: #000000; stroke-width: 0.8"/>
      </g>
     </g>
     <g id="text_20">
      <!-- 0 -->
      <g transform="translate(505.301563 270.876094) scale(0.1 -0.1)">
       <use xlink:href="#DejaVuSans-13"/>
      </g>
     </g>
    </g>
    <g id="xtick_13">
     <g id="line2d_42">
      <path d="M 547.729479 256.278438 
L 547.729479 20.798438 
" clip-path="url(#pdd084703f9)" style="fill: none; stroke: #b0b0b0; stroke-opacity: 0.2; stroke-width: 0.8; stroke-linecap: square"/>
     </g>
     <g id="line2d_43">
      <g>
       <use xlink:href="#m8cbad88b5e" x="547.729479" y="256.278438" style="stroke: #000000; stroke-width: 0.8"/>
      </g>
     </g>
     <g id="text_21">
      <!-- 1 -->
      <g transform="translate(544.548229 270.876094) scale(0.1 -0.1)">
       <use xlink:href="#DejaVuSans-14"/>
      </g>
     </g>
    </g>
    <g id="xtick_14">
     <g id="line2d_44">
      <path d="M 586.976146 256.278438 
L 586.976146 20.798438 
" clip-path="url(#pdd084703f9)" style="fill: none; stroke: #b0b0b0; stroke-opacity: 0.2; stroke-width: 0.8; stroke-linecap: square"/>
     </g>
     <g id="line2d_45">
      <g>
       <use xlink:href="#m8cbad88b5e" x="586.976146" y="256.278438" style="stroke: #000000; stroke-width: 0.8"/>
      </g>
     </g>
     <g id="text_22">
      <!-- 2 -->
      <g transform="translate(583.794896 270.876094) scale(0.1 -0.1)">
       <use xlink:href="#DejaVuSans-15"/>
      </g>
     </g>
    </g>
    <g id="xtick_15">
     <g id="line2d_46">
      <path d="M 626.222813 256.278438 
L 626.222813 20.798438 
" clip-path="url(#pdd084703f9)" style="fill: none; stroke: #b0b0b0; stroke-opacity: 0.2; stroke-width: 0.8; stroke-linecap: square"/>
     </g>
     <g id="line2d_47">
      <g>
       <use xlink:href="#m8cbad88b5e" x="626.222813" y="256.278438" style="stroke: #000000; stroke-width: 0.8"/>
      </g>
     </g>
     <g id="text_23">
      <!-- 3 -->
      <g transform="translate(623.041563 270.876094) scale(0.1 -0.1)">
       <use xlink:href="#DejaVuSans-16"/>
      </g>
     </g>
    </g>
    <g id="xtick_16">
     <g id="line2d_48">
      <path d="M 665.469479 256.278438 
L 665.469479 20.798438 
" clip-path="url(#pdd084703f9)" style="fill: none; stroke: #b0b0b0; stroke-opacity: 0.2; stroke-width: 0.8; stroke-linecap: square"/>
     </g>
     <g id="line2d_49">
      <g>
       <use xlink:href="#m8cbad88b5e" x="665.469479" y="256.278438" style="stroke: #000000; stroke-width: 0.8"/>
      </g>
     </g>
     <g id="text_24">
      <!-- 4 -->
      <g transform="translate(662.288229 270.876094) scale(0.1 -0.1)">
       <use xlink:href="#DejaVuSans-17"/>
      </g>
     </g>
    </g>
   </g>
   <g id="matplotlib.axis_4">
    <g id="ytick_8">
     <g id="line2d_50">
      <path d="M 351.496146 256.278438 
L 665.469479 256.278438 
" clip-path="url(#pdd084703f9)" style="fill: none; stroke: #b0b0b0; stroke-opacity: 0.2; stroke-width: 0.8; stroke-linecap: square"/>
     </g>
     <g id="line2d_51">
      <g>
       <use xlink:href="#m756c8e18d7" x="351.496146" y="256.278438" style="stroke: #000000; stroke-width: 0.8"/>
      </g>
     </g>
     <g id="text_25">
      <!-- −3 -->
      <g transform="translate(329.753958 260.077266) scale(0.1 -0.1)">
       <use xlink:href="#DejaVuSans-c9c"/>
       <use xlink:href="#DejaVuSans-16" transform="translate(83.796875 0)"/>
      </g>
     </g>
    </g>
    <g id="ytick_9">
     <g id="line2d_52">
      <path d="M 351.496146 217.031771 
L 665.469479 217.031771 
" clip-path="url(#pdd084703f9)" style="fill: none; stroke: #b0b0b0; stroke-opacity: 0.2; stroke-width: 0.8; stroke-linecap: square"/>
     </g>
     <g id="line2d_53">
      <g>
       <use xlink:href="#m756c8e18d7" x="351.496146" y="217.031771" style="stroke: #000000; stroke-width: 0.8"/>
      </g>
     </g>
     <g id="text_26">
      <!-- −2 -->
      <g transform="translate(329.753958 220.830599) scale(0.1 -0.1)">
       <use xlink:href="#DejaVuSans-c9c"/>
       <use xlink:href="#DejaVuSans-15" transform="translate(83.796875 0)"/>
      </g>
     </g>
    </g>
    <g id="ytick_10">
     <g id="line2d_54">
      <path d="M 351.496146 177.785104 
L 665.469479 177.785104 
" clip-path="url(#pdd084703f9)" style="fill: none; stroke: #b0b0b0; stroke-opacity: 0.2; stroke-width: 0.8; stroke-linecap: square"/>
     </g>
     <g id="line2d_55">
      <g>
       <use xlink:href="#m756c8e18d7" x="351.496146" y="177.785104" style="stroke: #000000; stroke-width: 0.8"/>
      </g>
     </g>
     <g id="text_27">
      <!-- −1 -->
      <g transform="translate(329.753958 181.583932) scale(0.1 -0.1)">
       <use xlink:href="#DejaVuSans-c9c"/>
       <use xlink:href="#DejaVuSans-14" transform="translate(83.796875 0)"/>
      </g>
     </g>
    </g>
    <g id="ytick_11">
     <g id="line2d_56">
      <path d="M 351.496146 138.538438 
L 665.469479 138.538438 
" clip-path="url(#pdd084703f9)" style="fill: none; stroke: #b0b0b0; stroke-opacity: 0.2; stroke-width: 0.8; stroke-linecap: square"/>
     </g>
     <g id="line2d_57">
      <g>
       <use xlink:href="#m756c8e18d7" x="351.496146" y="138.538438" style="stroke: #000000; stroke-width: 0.8"/>
      </g>
     </g>
     <g id="text_28">
      <!-- 0 -->
      <g transform="translate(338.133646 142.337266) scale(0.1 -0.1)">
       <use xlink:href="#DejaVuSans-13"/>
      </g>
     </g>
    </g>
    <g id="ytick_12">
     <g id="line2d_58">
      <path d="M 351.496146 99.291771 
L 665.469479 99.291771 
" clip-path="url(#pdd084703f9)" style="fill: none; stroke: #b0b0b0; stroke-opacity: 0.2; stroke-width: 0.8; stroke-linecap: square"/>
     </g>
     <g id="line2d_59">
      <g>
       <use xlink:href="#m756c8e18d7" x="351.496146" y="99.291771" style="stroke: #000000; stroke-width: 0.8"/>
      </g>
     </g>
     <g id="text_29">
      <!-- 1 -->
      <g transform="translate(338.133646 103.090599) scale(0.1 -0.1)">
       <use xlink:href="#DejaVuSans-14"/>
      </g>
     </g>
    </g>
    <g id="ytick_13">
     <g id="line2d_60">
      <path d="M 351.496146 60.045104 
L 665.469479 60.045104 
" clip-path="url(#pdd084703f9)" style="fill: none; stroke: #b0b0b0; stroke-opacity: 0.2; stroke-width: 0.8; stroke-linecap: square"/>
     </g>
     <g id="line2d_61">
      <g>
       <use xlink:href="#m756c8e18d7" x="351.496146" y="60.045104" style="stroke: #000000; stroke-width: 0.8"/>
      </g>
     </g>
     <g id="text_30">
      <!-- 2 -->
      <g transform="translate(338.133646 63.843932) scale(0.1 -0.1)">
       <use xlink:href="#DejaVuSans-15"/>
      </g>
     </g>
    </g>
    <g id="ytick_14">
     <g id="line2d_62">
      <path d="M 351.496146 20.798438 
L 665.469479 20.798438 
" clip-path="url(#pdd084703f9)" style="fill: none; stroke: #b0b0b0; stroke-opacity: 0.2; stroke-width: 0.8; stroke-linecap: square"/>
     </g>
     <g id="line2d_63">
      <g>
       <use xlink:href="#m756c8e18d7" x="351.496146" y="20.798438" style="stroke: #000000; stroke-width: 0.8"/>
      </g>
     </g>
     <g id="text_31">
      <!-- 3 -->
      <g transform="translate(338.133646 24.597266) scale(0.1 -0.1)">
       <use xlink:href="#DejaVuSans-16"/>
      </g>
     </g>
    </g>
   </g>
   <g id="line2d_64">
    <path d="M 656.71305 281.478438 
L 634.658415 258.454999 
L 616.714592 239.40378 
L 602.715669 224.209497 
L 591.765625 211.994044 
L 583.19132 202.107772 
L 576.482279 194.068849 
L 570.639093 186.737009 
L 566.111661 180.737766 
L 562.163895 175.162989 
L 558.756086 169.956604 
L 556.190113 165.661964 
L 553.991468 161.576164 
L 552.143221 157.667746 
L 550.631143 153.906616 
L 549.593745 150.778043 
L 548.788866 147.718695 
L 548.211954 144.71127 
L 547.859746 141.738757 
L 547.73025 138.784346 
L 547.822732 135.831325 
L 548.137718 132.862993 
L 548.676987 129.862561 
L 549.443591 126.813059 
L 550.441864 123.69724 
L 551.677453 120.497481 
L 553.428314 116.634162 
L 555.525238 112.602189 
L 557.984371 108.370517 
L 560.824646 103.906563 
L 564.565575 98.476294 
L 568.870618 92.643055 
L 573.783078 86.348172 
L 580.097427 78.635581 
L 587.323663 70.160233 
L 596.534651 59.71696 
L 607.130163 48.0343 
L 620.583907 33.531987 
L 637.703787 15.421585 
L 653.435687 -1 
L 653.435687 -1 
" clip-path="url(#pdd084703f9)" style="fill: none; stroke: #ff0000; stroke-width: 2; stroke-linecap: square"/>
   </g>
   <g id="line2d_65">
    <path d="M 360.252575 281.478438 
L 382.30721 258.454999 
L 400.251033 239.40378 
L 414.249956 224.209497 
L 425.2 211.994044 
L 433.774305 202.107772 
L 440.483346 194.068849 
L 446.326532 186.737009 
L 450.853964 180.737766 
L 454.80173 175.162989 
L 458.209539 169.956604 
L 460.775512 165.661964 
L 462.974157 161.576164 
L 464.822404 157.667746 
L 466.334482 153.906616 
L 467.37188 150.778043 
L 468.176759 147.718695 
L 468.753671 144.71127 
L 469.105879 141.738757 
L 469.235375 138.784346 
L 469.142893 135.831325 
L 468.827907 132.862993 
L 468.288638 129.862561 
L 467.522034 126.813059 
L 466.523761 123.69724 
L 465.288172 120.497481 
L 463.537311 116.634162 
L 461.440387 112.602189 
L 458.981254 108.370517 
L 456.140979 103.906563 
L 452.40005 98.476294 
L 448.095007 92.643055 
L 443.182547 86.348172 
L 436.868198 78.635581 
L 429.641962 70.160233 
L 420.430974 59.71696 
L 409.835462 48.0343 
L 396.381718 33.531987 
L 379.261838 15.421585 
L 363.529938 -1 
L 363.529938 -1 
" clip-path="url(#pdd084703f9)" style="fill: none; stroke: #ffa500; stroke-width: 2; stroke-linecap: square"/>
   </g>
   <g id="line2d_66">
    <path d="M 351.496146 138.538438 
L 665.469479 138.538438 
" clip-path="url(#pdd084703f9)" style="fill: none; stroke: #808080; stroke-width: 0.5; stroke-linecap: square"/>
   </g>
   <g id="line2d_67">
    <path d="M 508.482813 256.278438 
L 508.482813 20.798438 
" clip-path="url(#pdd084703f9)" style="fill: none; stroke: #808080; stroke-width: 0.5; stroke-linecap: square"/>
   </g>
   <g id="patch_10">
    <path d="M 351.496146 256.278438 
L 351.496146 20.798438 
" style="fill: none; stroke: #000000; stroke-width: 0.8; stroke-linejoin: miter; stroke-linecap: square"/>
   </g>
   <g id="patch_11">
    <path d="M 665.469479 256.278438 
L 665.469479 20.798438 
" style="fill: none; stroke: #000000; stroke-width: 0.8; stroke-linejoin: miter; stroke-linecap: square"/>
   </g>
   <g id="patch_12">
    <path d="M 351.496146 256.278438 
L 665.469479 256.278438 
" style="fill: none; stroke: #000000; stroke-width: 0.8; stroke-linejoin: miter; stroke-linecap: square"/>
   </g>
   <g id="patch_13">
    <path d="M 351.496146 20.798438 
L 665.469479 20.798438 
" style="fill: none; stroke: #000000; stroke-width: 0.8; stroke-linejoin: miter; stroke-linecap: square"/>
   </g>
   <g id="text_32">
    <!-- Hyperbola: e^x = cosh x + sinh x -->
    <g transform="translate(423.525 14.798438) scale(0.1 -0.1)">
     <defs>
      <path id="DejaVuSans-2b" d="M 628 4666 
L 1259 4666 
L 1259 2753 
L 3553 2753 
L 3553 4666 
L 4184 4666 
L 4184 0 
L 3553 0 
L 3553 2222 
L 1259 2222 
L 1259 0 
L 628 0 
L 628 4666 
z
" transform="scale(0.015625)"/>
      <path id="DejaVuSans-5c" d="M 2059 -325 
Q 1816 -950 1584 -1140 
Q 1353 -1331 966 -1331 
L 506 -1331 
L 506 -850 
L 844 -850 
Q 1081 -850 1212 -737 
Q 1344 -625 1503 -206 
L 1606 56 
L 191 3500 
L 800 3500 
L 1894 763 
L 2988 3500 
L 3597 3500 
L 2059 -325 
z
" transform="scale(0.015625)"/>
      <path id="DejaVuSans-53" d="M 1159 525 
L 1159 -1331 
L 581 -1331 
L 581 3500 
L 1159 3500 
L 1159 2969 
Q 1341 3281 1617 3432 
Q 1894 3584 2278 3584 
Q 2916 3584 3314 3078 
Q 3713 2572 3713 1747 
Q 3713 922 3314 415 
Q 2916 -91 2278 -91 
Q 1894 -91 1617 61 
Q 1341 213 1159 525 
z
M 3116 1747 
Q 3116 2381 2855 2742 
Q 2594 3103 2138 3103 
Q 1681 3103 1420 2742 
Q 1159 2381 1159 1747 
Q 1159 1113 1420 752 
Q 1681 391 2138 391 
Q 2594 391 2855 752 
Q 3116 1113 3116 1747 
z
" transform="scale(0.015625)"/>
      <path id="DejaVuSans-45" d="M 3116 1747 
Q 3116 2381 2855 2742 
Q 2594 3103 2138 3103 
Q 1681 3103 1420 2742 
Q 1159 2381 1159 1747 
Q 1159 1113 1420 752 
Q 1681 391 2138 391 
Q 2594 391 2855 752 
Q 3116 1113 3116 1747 
z
M 1159 2969 
Q 1341 3281 1617 3432 
Q 1894 3584 2278 3584 
Q 2916 3584 3314 3078 
Q 3713 2572 3713 1747 
Q 3713 922 3314 415 
Q 2916 -91 2278 -91 
Q 1894 -91 1617 61 
Q 1341 213 1159 525 
L 1159 0 
L 581 0 
L 581 4863 
L 1159 4863 
L 1159 2969 
z
" transform="scale(0.015625)"/>
      <path id="DejaVuSans-44" d="M 2194 1759 
Q 1497 1759 1228 1600 
Q 959 1441 959 1056 
Q 959 750 1161 570 
Q 1363 391 1709 391 
Q 2188 391 2477 730 
Q 2766 1069 2766 1631 
L 2766 1759 
L 2194 1759 
z
M 3341 1997 
L 3341 0 
L 2766 0 
L 2766 531 
Q 2569 213 2275 61 
Q 1981 -91 1556 -91 
Q 1019 -91 701 211 
Q 384 513 384 1019 
Q 384 1609 779 1909 
Q 1175 2209 1959 2209 
L 2766 2209 
L 2766 2266 
Q 2766 2663 2505 2880 
Q 2244 3097 1772 3097 
Q 1472 3097 1187 3025 
Q 903 2953 641 2809 
L 641 3341 
Q 956 3463 1253 3523 
Q 1550 3584 1831 3584 
Q 2591 3584 2966 3190 
Q 3341 2797 3341 1997 
z
" transform="scale(0.015625)"/>
      <path id="DejaVuSans-4b" d="M 3513 2113 
L 3513 0 
L 2938 0 
L 2938 2094 
Q 2938 2591 2744 2837 
Q 2550 3084 2163 3084 
Q 1697 3084 1428 2787 
Q 1159 2491 1159 1978 
L 1159 0 
L 581 0 
L 581 4863 
L 1159 4863 
L 1159 2956 
Q 1366 3272 1645 3428 
Q 1925 3584 2291 3584 
Q 2894 3584 3203 3211 
Q 3513 2838 3513 2113 
z
" transform="scale(0.015625)"/>
     </defs>
     <use xlink:href="#DejaVuSans-2b"/>
     <use xlink:href="#DejaVuSans-5c" transform="translate(75.203125 0)"/>
     <use xlink:href="#DejaVuSans-53" transform="translate(134.390625 0)"/>
     <use xlink:href="#DejaVuSans-48" transform="translate(197.875 0)"/>
     <use xlink:href="#DejaVuSans-55" transform="translate(259.40625 0)"/>
     <use xlink:href="#DejaVuSans-45" transform="translate(300.515625 0)"/>
     <use xlink:href="#DejaVuSans-52" transform="translate(364 0)"/>
     <use xlink:href="#DejaVuSans-4f" transform="translate(425.1875 0)"/>
     <use xlink:href="#DejaVuSans-44" transform="translate(452.96875 0)"/>
     <use xlink:href="#DejaVuSans-1d" transform="translate(514.25 0)"/>
     <use xlink:href="#DejaVuSans-3" transform="translate(547.9375 0)"/>
     <use xlink:href="#DejaVuSans-48" transform="translate(579.71875 0)"/>
     <use xlink:href="#DejaVuSans-41" transform="translate(641.25 0)"/>
     <use xlink:href="#DejaVuSans-5b" transform="translate(725.046875 0)"/>
     <use xlink:href="#DejaVuSans-3" transform="translate(784.234375 0)"/>
     <use xlink:href="#DejaVuSans-20" transform="translate(816.015625 0)"/>
     <use xlink:href="#DejaVuSans-3" transform="translate(899.8125 0)"/>
     <use xlink:href="#DejaVuSans-46" transform="translate(931.59375 0)"/>
     <use xlink:href="#DejaVuSans-52" transform="translate(986.578125 0)"/>
     <use xlink:href="#DejaVuSans-56" transform="translate(1047.765625 0)"/>
     <use xlink:href="#DejaVuSans-4b" transform="translate(1099.859375 0)"/>
     <use xlink:href="#DejaVuSans-3" transform="translate(1163.234375 0)"/>
     <use xlink:href="#DejaVuSans-5b" transform="translate(1195.015625 0)"/>
     <use xlink:href="#DejaVuSans-3" transform="translate(1254.203125 0)"/>
     <use xlink:href="#DejaVuSans-e" transform="translate(1285.984375 0)"/>
     <use xlink:href="#DejaVuSans-3" transform="translate(1369.78125 0)"/>
     <use xlink:href="#DejaVuSans-56" transform="translate(1401.5625 0)"/>
     <use xlink:href="#DejaVuSans-4c" transform="translate(1453.65625 0)"/>
     <use xlink:href="#DejaVuSans-51" transform="translate(1481.4375 0)"/>
     <use xlink:href="#DejaVuSans-4b" transform="translate(1544.8125 0)"/>
     <use xlink:href="#DejaVuSans-3" transform="translate(1608.1875 0)"/>
     <use xlink:href="#DejaVuSans-5b" transform="translate(1639.96875 0)"/>
    </g>
   </g>
   <g id="legend_1">
    <g id="patch_14">
     <path d="M 585.121979 151.739063 
L 659.869479 151.739063 
Q 661.469479 151.739063 661.469479 150.139063 
L 661.469479 126.937813 
Q 661.469479 125.337813 659.869479 125.337813 
L 585.121979 125.337813 
Q 583.521979 125.337813 583.521979 126.937813 
L 583.521979 150.139063 
Q 583.521979 151.739063 585.121979 151.739063 
z
" style="fill: #ffffff; opacity: 0.8; stroke: #cccccc; stroke-linejoin: miter"/>
    </g>
    <g id="line2d_68">
     <path d="M 586.721979 131.816563 
L 594.721979 131.816563 
L 602.721979 131.816563 
" style="fill: none; stroke: #ff0000; stroke-width: 2; stroke-linecap: square"/>
    </g>
    <g id="text_33">
     <!-- right branch -->
     <g transform="translate(609.121979 134.616563) scale(0.08 -0.08)">
      <defs>
       <path id="DejaVuSans-4a" d="M 2906 1791 
Q 2906 2416 2648 2759 
Q 2391 3103 1925 3103 
Q 1463 3103 1205 2759 
Q 947 2416 947 1791 
Q 947 1169 1205 825 
Q 1463 481 1925 481 
Q 2391 481 2648 825 
Q 2906 1169 2906 1791 
z
M 3481 434 
Q 3481 -459 3084 -895 
Q 2688 -1331 1869 -1331 
Q 1566 -1331 1297 -1286 
Q 1028 -1241 775 -1147 
L 775 -588 
Q 1028 -725 1275 -790 
Q 1522 -856 1778 -856 
Q 2344 -856 2625 -561 
Q 2906 -266 2906 331 
L 2906 616 
Q 2728 306 2450 153 
Q 2172 0 1784 0 
Q 1141 0 747 490 
Q 353 981 353 1791 
Q 353 2603 747 3093 
Q 1141 3584 1784 3584 
Q 2172 3584 2450 3431 
Q 2728 3278 2906 2969 
L 2906 3500 
L 3481 3500 
L 3481 434 
z
" transform="scale(0.015625)"/>
       <path id="DejaVuSans-57" d="M 1172 4494 
L 1172 3500 
L 2356 3500 
L 2356 3053 
L 1172 3053 
L 1172 1153 
Q 1172 725 1289 603 
Q 1406 481 1766 481 
L 2356 481 
L 2356 0 
L 1766 0 
Q 1100 0 847 248 
Q 594 497 594 1153 
L 594 3053 
L 172 3053 
L 172 3500 
L 594 3500 
L 594 4494 
L 1172 4494 
z
" transform="scale(0.015625)"/>
      </defs>
      <use xlink:href="#DejaVuSans-55"/>
      <use xlink:href="#DejaVuSans-4c" transform="translate(41.109375 0)"/>
      <use xlink:href="#DejaVuSans-4a" transform="translate(68.890625 0)"/>
      <use xlink:href="#DejaVuSans-4b" transform="translate(132.375 0)"/>
      <use xlink:href="#DejaVuSans-57" transform="translate(195.75 0)"/>
      <use xlink:href="#DejaVuSans-3" transform="translate(234.953125 0)"/>
      <use xlink:href="#DejaVuSans-45" transform="translate(266.734375 0)"/>
      <use xlink:href="#DejaVuSans-55" transform="translate(330.21875 0)"/>
      <use xlink:href="#DejaVuSans-44" transform="translate(371.328125 0)"/>
      <use xlink:href="#DejaVuSans-51" transform="translate(432.609375 0)"/>
      <use xlink:href="#DejaVuSans-46" transform="translate(495.984375 0)"/>
      <use xlink:href="#DejaVuSans-4b" transform="translate(550.96875 0)"/>
     </g>
    </g>
    <g id="line2d_69">
     <path d="M 586.721979 143.817188 
L 594.721979 143.817188 
L 602.721979 143.817188 
" style="fill: none; stroke: #ffa500; stroke-width: 2; stroke-linecap: square"/>
    </g>
    <g id="text_34">
     <!-- left branch -->
     <g transform="translate(609.121979 146.617188) scale(0.08 -0.08)">
      <defs>
       <path id="DejaVuSans-49" d="M 2375 4863 
L 2375 4384 
L 1825 4384 
Q 1516 4384 1395 4259 
Q 1275 4134 1275 3809 
L 1275 3500 
L 2222 3500 
L 2222 3053 
L 1275 3053 
L 1275 0 
L 697 0 
L 697 3053 
L 147 3053 
L 147 3500 
L 697 3500 
L 697 3744 
Q 697 4328 969 4595 
Q 1241 4863 1831 4863 
L 2375 4863 
z
" transform="scale(0.015625)"/>
      </defs>
      <use xlink:href="#DejaVuSans-4f"/>
      <use xlink:href="#DejaVuSans-48" transform="translate(27.78125 0)"/>
      <use xlink:href="#DejaVuSans-49" transform="translate(89.3125 0)"/>
      <use xlink:href="#DejaVuSans-57" transform="translate(122.765625 0)"/>
      <use xlink:href="#DejaVuSans-3" transform="translate(161.96875 0)"/>
      <use xlink:href="#DejaVuSans-45" transform="translate(193.75 0)"/>
      <use xlink:href="#DejaVuSans-55" transform="translate(257.234375 0)"/>
      <use xlink:href="#DejaVuSans-44" transform="translate(298.34375 0)"/>
      <use xlink:href="#DejaVuSans-51" transform="translate(359.625 0)"/>
      <use xlink:href="#DejaVuSans-46" transform="translate(423 0)"/>
      <use xlink:href="#DejaVuSans-4b" transform="translate(477.984375 0)"/>
     </g>
    </g>
   </g>
  </g>
 </g>
 <defs>
  <clipPath id="pb0bd2b58c6">
   <rect x="38.482813" y="20.798438" width="235.48" height="235.48"/>
  </clipPath>
  <clipPath id="pdd084703f9">
   <rect x="351.496146" y="20.798438" width="313.973333" height="235.48"/>
  </clipPath>
 </defs>
</svg>
